<svg width="320" height="100" viewBox="0 0 320 100" fill="none" xmlns="http://www.w3.org/2000/svg">
<rect width="320" height="100" rx="24" fill="#F3F4F5"/>
<g clip-path="url(#clip0_20009_4629)">
<path d="M119.587 51.6308C119.524 45.0508 124.998 41.8894 125.244 41.7389C122.163 37.2665 117.378 36.6518 115.673 36.5828C111.601 36.1688 107.725 38.9664 105.654 38.9664C103.583 38.9664 100.395 36.6393 97.0175 36.7083C92.573 36.771 88.4758 39.2738 86.1841 43.2255C81.5755 51.1667 85.0099 62.9592 89.5112 69.4137C91.7145 72.5688 94.3281 76.1254 97.7751 75.9937C101.096 75.8619 102.346 73.861 106.348 73.861C110.351 73.861 111.481 75.9937 114.985 75.931C118.552 75.8619 120.812 72.7068 122.996 69.5392C125.509 65.8697 126.551 62.3256 126.614 62.1375C126.532 62.1061 119.663 59.4904 119.587 51.6308Z" fill="#D5D6D7"/>
<path d="M113.002 32.3049C114.833 30.1033 116.064 27.0485 115.73 24C113.097 24.1066 109.909 25.7438 108.021 27.9455C106.329 29.89 104.846 33.0012 105.25 35.987C108.173 36.2128 111.178 34.5004 113.002 32.3049ZM142.674 58.0979L139.644 67.2246H135.749L145.667 38.22H150.212L160.168 67.2246H156.14L153.022 58.0979H142.674ZM152.245 55.1686L149.391 46.8198C148.741 44.9254 148.312 43.2068 147.876 41.5257H147.794C147.359 43.2444 146.885 45.007 146.323 46.7759L143.47 55.1624L152.245 55.1686ZM163.123 53.1928C163.123 50.5269 163.041 48.3691 162.946 46.3932H166.368L166.544 49.9686H166.626C168.186 47.4282 170.654 45.9228 174.076 45.9228C179.146 45.9228 182.952 50.1819 182.952 56.511C182.952 64.0005 178.363 67.695 173.426 67.695C170.654 67.695 168.23 66.4907 166.974 64.427H166.892V75.7428H163.123V53.1928ZM166.885 58.744C166.885 59.3086 166.967 59.8166 167.062 60.2934C167.757 62.9153 170.048 64.7281 172.782 64.7281C176.81 64.7281 179.152 61.4601 179.152 56.6803C179.152 52.5028 176.942 48.9399 172.914 48.9399C170.32 48.9399 167.895 50.7903 167.15 53.6318C167.018 54.1023 166.892 54.6668 166.892 55.1812L166.885 58.744ZM186.892 53.1928C186.892 50.5269 186.81 48.3691 186.715 46.3932H190.137L190.314 49.9686H190.396C191.955 47.4282 194.423 45.9228 197.845 45.9228C202.915 45.9228 206.721 50.1819 206.721 56.511C206.721 64.0005 202.132 67.695 197.195 67.695C194.423 67.695 191.999 66.4907 190.743 64.427H190.661V75.7428H186.892V53.1928ZM190.661 58.744C190.661 59.3086 190.743 59.8166 190.838 60.2934C191.532 62.9153 193.824 64.7281 196.557 64.7281C200.585 64.7281 202.927 61.4601 202.927 56.6803C202.927 52.5028 200.718 48.9399 196.69 48.9399C194.095 48.9399 191.671 50.7903 190.926 53.6318C190.793 54.1023 190.667 54.6668 190.667 55.1812L190.661 58.744ZM210.667 36.6707H214.48V67.2183H210.667V36.6707ZM222.145 57.4958C222.227 62.6142 225.522 64.7281 229.329 64.7281C232.056 64.7281 233.704 64.2577 235.131 63.6555L235.781 66.3653C234.443 66.9674 232.145 67.6574 228.811 67.6574C222.359 67.6574 218.502 63.4422 218.502 57.1571C218.502 50.8719 222.227 45.9228 228.332 45.9228C235.175 45.9228 236.993 51.9006 236.993 55.7332C236.993 56.511 236.911 57.1069 236.861 57.4958H222.145ZM233.319 54.786C233.363 52.3773 232.321 48.6326 228.035 48.6326C224.177 48.6326 222.492 52.164 222.189 54.786H233.319Z" fill="#D5D6D7"/>
</g>
<defs>
<clipPath id="clip0_20009_4629">
<rect width="153" height="52" fill="white" transform="translate(84 24)"/>
</clipPath>
</defs>
</svg>
