<svg width="620" height="402" viewBox="0 0 620 402" fill="none" xmlns="http://www.w3.org/2000/svg">
<rect width="620" height="402" rx="24" fill="#F3F4F5"/>
<path d="M137 287.667H267M202 114.334V244.334M202 244.334L239.917 206.417M202 244.334L164.083 206.417" stroke="#A0A0A0" stroke-width="14" stroke-linecap="round" stroke-linejoin="round"/>
<g clip-path="url(#clip0_20009_5108)">
<path fill-rule="evenodd" clip-rule="evenodd" d="M456.802 120.915L465.279 105.49C465.437 105.106 465.447 104.678 465.309 104.287C465.17 103.896 464.893 103.569 464.529 103.37C464.165 103.171 463.74 103.114 463.336 103.208C462.932 103.303 462.577 103.543 462.339 103.883L453.774 119.465C446.276 116.166 438.171 114.47 429.98 114.486C421.463 114.486 413.418 116.26 406.224 119.445L397.64 103.883C397.536 103.688 397.394 103.516 397.224 103.376C397.053 103.236 396.856 103.132 396.644 103.069C396.433 103.006 396.211 102.986 395.991 103.01C395.772 103.033 395.559 103.1 395.366 103.206C395.171 103.31 394.999 103.452 394.859 103.623C394.72 103.793 394.615 103.99 394.553 104.202C394.49 104.413 394.469 104.635 394.493 104.855C394.516 105.074 394.583 105.287 394.69 105.48L403.177 120.886C386.517 129.451 375.247 145.748 375.256 164.466L484.683 164.456C484.683 145.738 473.452 129.48 456.802 120.915ZM405.078 144.719C404.477 144.719 403.882 144.6 403.327 144.369C402.772 144.138 402.268 143.801 401.843 143.375C401.419 142.95 401.082 142.445 400.853 141.889C400.623 141.334 400.505 140.739 400.506 140.138C400.507 139.537 400.626 138.942 400.856 138.387C401.087 137.832 401.425 137.328 401.85 136.903C402.275 136.479 402.78 136.142 403.336 135.913C403.891 135.683 404.487 135.565 405.088 135.566C406.303 135.566 407.468 136.049 408.327 136.908C409.186 137.767 409.669 138.932 409.669 140.148C409.669 141.363 409.186 142.528 408.327 143.387C407.468 144.246 406.303 144.729 405.088 144.729M484.311 168.661L484.33 247.178C484.33 251.892 481.763 255.969 477.98 258.223C475.987 259.438 473.699 260.082 471.365 260.085L462.506 260.095V286.888C462.504 288.688 462.102 290.466 461.327 292.092C460.553 293.717 459.426 295.15 458.028 296.285C456.631 297.421 454.998 298.231 453.249 298.657C451.499 299.082 449.676 299.113 447.914 298.746C445.183 298.184 442.728 296.7 440.961 294.542C439.195 292.385 438.224 289.686 438.212 286.898V260.095H421.797V286.898C421.791 290.111 420.511 293.191 418.236 295.46C415.961 297.73 412.878 299.003 409.664 299.001C406.453 298.995 403.375 297.72 401.101 295.452C398.828 293.184 397.545 290.109 397.532 286.898V260.095H388.702C383.596 260.095 379.225 257.155 377.118 252.882C376.222 251.117 375.749 249.168 375.737 247.188L375.717 168.69L484.311 168.661ZM358.851 166.407C365.554 166.407 371.003 171.826 371.003 178.5V229.166C371.003 229.996 370.922 230.809 370.758 231.606C370.355 233.549 369.482 235.363 368.216 236.889C366.949 238.416 365.327 239.609 363.492 240.364C361.657 241.118 359.666 241.411 357.691 241.217C355.717 241.023 353.82 240.347 352.168 239.25C350.491 238.154 349.113 236.657 348.16 234.894C347.207 233.132 346.708 231.16 346.709 229.156L346.699 178.5C346.699 171.836 352.138 166.407 358.851 166.407ZM501.147 166.397C507.85 166.397 513.299 171.806 513.299 178.49V229.146C513.299 235.84 507.86 241.249 501.157 241.249C494.444 241.249 489.005 235.84 489.005 229.146V178.48C489.005 171.797 494.434 166.377 501.137 166.387M454.891 135.586C455.509 135.557 456.127 135.654 456.707 135.871C457.286 136.088 457.816 136.42 458.263 136.847C458.711 137.275 459.067 137.788 459.311 138.357C459.554 138.926 459.68 139.538 459.68 140.157C459.68 140.776 459.554 141.389 459.311 141.958C459.067 142.526 458.711 143.04 458.263 143.467C457.816 143.895 457.286 144.227 456.707 144.444C456.127 144.661 455.509 144.758 454.891 144.729C454.273 144.758 453.655 144.661 453.076 144.444C452.496 144.227 451.967 143.895 451.519 143.467C451.072 143.04 450.715 142.526 450.472 141.958C450.228 141.389 450.103 140.776 450.103 140.157C450.103 139.538 450.228 138.926 450.472 138.357C450.715 137.788 451.072 137.275 451.519 136.847C451.967 136.42 452.496 136.088 453.076 135.871C453.655 135.654 454.273 135.557 454.891 135.586Z" fill="#A0A0A0"/>
</g>
<defs>
<clipPath id="clip0_20009_5108">
<rect width="196" height="196" fill="white" transform="translate(332 103)"/>
</clipPath>
</defs>
</svg>
