<svg width="620" height="402" viewBox="0 0 620 402" fill="none" xmlns="http://www.w3.org/2000/svg">
<rect width="620" height="402" rx="24" fill="#F3F4F5"/>
<g clip-path="url(#clip0_20009_5116)">
<path fill-rule="evenodd" clip-rule="evenodd" d="M216.802 120.915L225.279 105.49C225.437 105.106 225.447 104.678 225.309 104.287C225.17 103.896 224.893 103.569 224.529 103.37C224.165 103.171 223.74 103.114 223.336 103.208C222.932 103.303 222.577 103.543 222.339 103.883L213.774 119.465C206.276 116.166 198.171 114.47 189.98 114.486C181.463 114.486 173.418 116.26 166.224 119.445L157.64 103.883C157.536 103.688 157.394 103.516 157.224 103.376C157.053 103.236 156.856 103.132 156.644 103.069C156.433 103.006 156.211 102.986 155.991 103.01C155.772 103.033 155.559 103.1 155.366 103.206C155.171 103.31 154.999 103.452 154.859 103.623C154.72 103.793 154.615 103.99 154.553 104.202C154.49 104.413 154.469 104.635 154.493 104.855C154.516 105.074 154.583 105.287 154.69 105.48L163.177 120.886C146.517 129.451 135.247 145.748 135.256 164.466L244.683 164.456C244.683 145.738 233.452 129.48 216.802 120.915ZM165.078 144.719C164.477 144.719 163.882 144.6 163.327 144.369C162.772 144.138 162.268 143.801 161.843 143.375C161.419 142.95 161.082 142.445 160.853 141.889C160.623 141.334 160.505 140.739 160.506 140.138C160.507 139.537 160.626 138.942 160.856 138.387C161.087 137.832 161.425 137.328 161.85 136.903C162.275 136.479 162.78 136.142 163.336 135.913C163.891 135.683 164.487 135.565 165.088 135.566C166.303 135.566 167.468 136.049 168.327 136.908C169.186 137.767 169.669 138.932 169.669 140.148C169.669 141.363 169.186 142.528 168.327 143.387C167.468 144.246 166.303 144.729 165.088 144.729M244.311 168.661L244.33 247.178C244.33 251.892 241.763 255.969 237.98 258.223C235.987 259.438 233.699 260.082 231.365 260.085L222.506 260.095V286.888C222.504 288.688 222.102 290.466 221.327 292.092C220.553 293.717 219.426 295.15 218.028 296.285C216.631 297.421 214.998 298.231 213.249 298.657C211.499 299.082 209.676 299.113 207.914 298.746C205.183 298.184 202.728 296.7 200.961 294.542C199.195 292.385 198.224 289.686 198.212 286.898V260.095H181.797V286.898C181.791 290.111 180.511 293.191 178.236 295.46C175.961 297.73 172.878 299.003 169.664 299.001C166.453 298.995 163.375 297.72 161.101 295.452C158.828 293.184 157.545 290.109 157.532 286.898V260.095H148.702C143.596 260.095 139.225 257.155 137.118 252.882C136.222 251.117 135.749 249.168 135.737 247.188L135.717 168.69L244.311 168.661ZM118.851 166.407C125.554 166.407 131.003 171.826 131.003 178.5V229.166C131.003 229.996 130.922 230.809 130.758 231.606C130.355 233.549 129.482 235.363 128.216 236.889C126.949 238.416 125.327 239.609 123.492 240.364C121.657 241.118 119.666 241.411 117.691 241.217C115.717 241.023 113.82 240.347 112.168 239.25C110.491 238.154 109.113 236.657 108.16 234.894C107.207 233.132 106.708 231.16 106.709 229.156L106.699 178.5C106.699 171.836 112.138 166.407 118.851 166.407ZM261.147 166.397C267.85 166.397 273.299 171.806 273.299 178.49V229.146C273.299 235.84 267.86 241.249 261.157 241.249C254.444 241.249 249.005 235.84 249.005 229.146V178.48C249.005 171.797 254.434 166.377 261.137 166.387M214.891 135.586C215.509 135.557 216.127 135.654 216.707 135.871C217.286 136.088 217.816 136.42 218.263 136.847C218.711 137.275 219.067 137.788 219.311 138.357C219.554 138.926 219.68 139.538 219.68 140.157C219.68 140.776 219.554 141.389 219.311 141.958C219.067 142.526 218.711 143.04 218.263 143.467C217.816 143.895 217.286 144.227 216.707 144.444C216.127 144.661 215.509 144.758 214.891 144.729C214.273 144.758 213.655 144.661 213.076 144.444C212.496 144.227 211.967 143.895 211.519 143.467C211.072 143.04 210.715 142.526 210.472 141.958C210.228 141.389 210.103 140.776 210.103 140.157C210.103 139.538 210.228 138.926 210.472 138.357C210.715 137.788 211.072 137.275 211.519 136.847C211.967 136.42 212.496 136.088 213.076 135.871C213.655 135.654 214.273 135.557 214.891 135.586Z" fill="#F3F4F5"/>
</g>
<path d="M353 287.667H483M418 114.334V244.334M418 244.334L455.917 206.417M418 244.334L380.083 206.417" stroke="#A0A0A0" stroke-width="14" stroke-linecap="round" stroke-linejoin="round"/>
<path d="M254.646 262.019C245.212 271.201 234.912 269.751 224.998 265.402C214.505 260.956 204.879 260.762 193.809 265.402C179.947 271.394 172.631 269.655 164.353 262.019C117.378 213.402 124.308 139.364 177.637 136.658C190.632 137.335 199.681 143.811 207.285 144.39C218.644 142.071 229.522 135.402 241.651 136.271C256.186 137.431 267.16 143.231 274.379 153.669C244.346 171.744 251.469 211.469 279 222.584C273.513 237.082 266.39 251.484 254.55 262.116L254.646 262.019ZM206.323 136.078C204.879 114.524 222.302 96.7398 242.325 95C245.116 119.937 219.799 138.495 206.323 136.078Z" fill="#A0A0A0"/>
<defs>
<clipPath id="clip0_20009_5116">
<rect width="196" height="196" fill="white" transform="translate(92 103)"/>
</clipPath>
</defs>
</svg>
