<svg width="320" height="100" viewBox="0 0 320 100" fill="none" xmlns="http://www.w3.org/2000/svg">
<rect width="320" height="100" rx="24" fill="#F3F4F5"/>
<g clip-path="url(#clip0_20009_4613)">
<path fill-rule="evenodd" clip-rule="evenodd" d="M123.986 34.0176C132.616 34.0176 139.612 41.1735 139.612 50.0008C139.612 58.8281 132.616 65.9841 123.986 65.9841C115.356 65.9841 108.36 58.8281 108.36 50.0008C108.36 41.1735 115.356 34.0176 123.986 34.0176ZM123.986 39.5552C129.626 39.5552 134.198 44.2317 134.198 50.0008C134.198 55.77 129.626 60.4465 123.986 60.4465C118.346 60.4465 113.774 55.77 113.774 50.0008C113.774 44.2317 118.346 39.5552 123.986 39.5552Z" fill="#D5D6D7"/>
<path d="M100.654 65.9836H94.7397V52.6649H82.9128V65.9836H77V34.5112H82.9128V46.6166H94.7397V34.5078L100.654 34.5127V65.9836ZM171.015 65.9836H166.46L153.322 46.1631V65.9836H147.563V34.597H152.199L165.441 53.4177L165.266 34.5126H171.015V65.9836ZM218.018 34.5127H230.947C234.035 34.5127 236.628 36.5529 237.645 37.7574C238.498 38.7682 239.945 41.2951 239.945 44.1184C239.945 45.7298 239.766 48.2817 238.688 50.1062C237.684 51.8043 235.651 53.7257 233.328 54.2991L242 65.9837H235.079L223.518 52.2499V65.9837H218.018V34.5127H218.018ZM223.937 39.9666V49.2014H228.995C232.507 49.2014 234.14 47.0312 234.193 44.518C234.241 42.2248 231.907 39.9526 229.559 39.9563L223.937 39.9666Z" fill="#D5D6D7"/>
<path fill-rule="evenodd" clip-rule="evenodd" d="M194.592 34.0176C203.222 34.0176 210.218 41.1735 210.218 50.0008C210.218 58.8281 203.222 65.9841 194.592 65.9841C185.963 65.9841 178.967 58.8281 178.967 50.0008C178.967 41.1735 185.963 34.0176 194.592 34.0176ZM194.592 39.5552C200.233 39.5552 204.804 44.2317 204.804 50.0008C204.804 55.77 200.233 60.4465 194.592 60.4465C188.952 60.4465 184.38 55.77 184.38 50.0008C184.38 44.2317 188.952 39.5552 194.592 39.5552Z" fill="#D5D6D7"/>
</g>
<defs>
<clipPath id="clip0_20009_4613">
<rect width="165" height="32" fill="white" transform="translate(77 34)"/>
</clipPath>
</defs>
</svg>
