<svg width="320" height="101" viewBox="0 0 320 101" fill="none" xmlns="http://www.w3.org/2000/svg">
<rect width="320" height="101" rx="24" fill="#F3F4F5"/>
<g clip-path="url(#clip0_20009_4638)">
<path d="M205.019 63.4269C199.302 63.4663 193.891 63.5117 192.383 63.376C189.33 63.1103 187.29 61.1052 187.054 58.1541C186.893 56.2186 186.893 54.6144 187.044 53.0877C187.322 50.2155 189.716 47.4777 192.384 47.3488C193.339 47.2965 195.896 47.3025 200.525 47.3208L214 47.3488V41.737C214 41.737 203.267 41.7246 200.041 41.7099C195.709 41.6902 193.529 41.6875 192.149 41.737C189.112 41.8526 186.567 42.9385 184.587 44.9565C182.715 46.8607 181.597 49.8916 181.431 52.9602C181.337 54.6144 181.305 56.7778 181.431 58.0637C181.743 61.3621 182.805 63.9517 184.587 65.7656C186.494 67.7134 189.395 68.9465 192.152 68.9859C194.414 69.0144 214 68.9859 214 68.9859V63.3755C214 63.3755 208.05 63.3998 205.019 63.4269ZM144.19 42.0352V47.6415H157.484V68.8864H163.096V47.6415H176.393V42.0352H144.19ZM138.362 52.6381C138.321 49.6196 137.262 47.0282 135.204 44.9345C133.06 42.744 129.785 41.8329 127.643 41.7182C125.781 41.6131 118.441 41.6462 116.717 41.7182C114.289 41.8219 112.519 42.5485 111.633 43.2128C111.624 43.2188 111.615 43.216 111.615 43.2022V33.0039H106V68.9869H111.605C111.605 68.9869 111.496 54.258 111.621 52.6547C111.844 49.8026 113.999 47.5635 116.744 47.3218C118.947 47.1323 125.558 47.1841 127.631 47.3263C130.479 47.5231 132.581 49.7581 132.747 52.767C132.801 53.8749 132.743 68.9864 132.743 68.9864H138.361C138.362 68.9859 138.377 53.9336 138.362 52.6381Z" fill="#D5D6D7"/>
</g>
<defs>
<clipPath id="clip0_20009_4638">
<rect width="108" height="36" fill="white" transform="translate(106 33)"/>
</clipPath>
</defs>
</svg>
