<svg width="320" height="100" viewBox="0 0 320 100" fill="none" xmlns="http://www.w3.org/2000/svg">
<rect width="320" height="100" rx="24" fill="#F3F4F5"/>
<g clip-path="url(#clip0_20009_4598)">
<path d="M168.33 42.59H172.782V55.0902C172.782 61.4353 169.317 65.0746 163.281 65.0746C157.308 65.0746 153.874 61.4986 153.874 55.2643V42.6059H158.327V55.1219C158.327 58.8245 160.13 60.8023 163.344 60.8023C166.558 60.8023 168.33 58.8719 168.33 55.2801V42.59ZM143.244 51.5142H133.178V42.59H128.726V64.7423H133.178V55.739H143.228V64.7423H147.681V42.59H143.228V51.5142H143.244ZM254.75 42.59V64.7106H259.14V42.59H254.75ZM237.268 55.201H245.374V51.1661H237.268V46.6249H249.027V42.6059H232.878V64.7265H249.451V60.6916H237.268V55.201ZM219.803 57.8118L214.817 42.5742H211.179L206.193 57.8118L201.349 42.59H196.614L204.265 64.7265H207.949L212.935 50.1851L217.921 64.7265H221.637L229.272 42.59H224.647L219.803 57.8118ZM188.696 42.7166L198.276 64.7265H193.604L191.628 60.122H181.578L181.437 60.4384L179.587 64.7265H175.04L184.714 42.59H188.602L188.696 42.7166ZM189.762 55.5966L186.595 48.1756L183.444 55.5966L183.224 56.1029H189.966L189.762 55.5966Z" fill="#D5D6D7"/>
<path d="M84.8884 62.3844C84.9511 62.3369 84.9668 62.242 84.9354 62.1629C80.6122 52.7851 75.2188 43.9488 68.8649 35.8334C68.8649 35.8334 63.8164 40.6752 64.177 45.5329C64.2615 46.6528 64.5639 47.7449 65.067 48.7468C65.57 49.7487 66.2639 50.6406 67.1089 51.3716C71.5146 55.7071 82.176 61.1819 84.6532 62.4319C84.7316 62.4635 84.8257 62.4477 84.8884 62.3844ZM83.2421 66.087C83.2108 65.9921 83.1167 65.9288 83.007 65.9288L65.2588 66.5459C67.1873 70.0111 70.4327 72.701 73.8036 71.8782C76.1397 71.2928 81.4078 67.5744 83.1481 66.3085C83.2892 66.1978 83.2421 66.1028 83.2421 66.087ZM83.5087 64.4889C83.6028 64.3465 83.446 64.2199 83.446 64.2199C75.6537 58.9033 60.5395 50.7387 60.5395 50.7387C60.0386 52.2883 59.8984 53.9336 60.13 55.5468C60.3616 57.16 60.9586 58.6976 61.8748 60.04C62.7909 61.3825 64.0014 62.4937 65.4122 63.2872C66.8231 64.0807 68.3962 64.5353 70.0094 64.6154C70.276 64.6629 80.5611 64.6154 83.3205 64.5996C83.3989 64.5838 83.4616 64.5522 83.5087 64.4889ZM84.6846 28.0959C83.9163 28.1592 81.8311 28.6497 81.8311 28.6497C77.1275 29.8681 76.0143 34.1878 76.0143 34.1878C75.152 36.8935 76.03 39.8841 76.03 39.8841C77.5979 46.9095 85.3117 58.4761 86.9737 60.897C87.0834 61.0236 87.1775 60.9762 87.1775 60.9762C87.2715 60.9445 87.3499 60.8654 87.3499 60.7546C89.9212 34.9314 84.6846 28.0959 84.6846 28.0959ZM90.564 60.9445C90.6581 60.9762 90.7679 60.9445 90.8149 60.8496C92.5239 58.3654 100.191 46.862 101.759 39.8682C101.759 39.8682 102.605 36.4821 101.79 34.1719C101.79 34.1719 100.63 29.789 95.9261 28.6339C95.9261 28.6339 94.5778 28.2858 93.1353 28.0801C93.1353 28.0801 87.8673 34.9156 90.4386 60.7388C90.4229 60.8337 90.4857 60.9129 90.564 60.9445ZM94.7659 65.9446C94.7241 65.9531 94.6845 65.9701 94.6495 65.9946C94.6144 66.0191 94.5847 66.0505 94.5621 66.087C94.5464 66.1819 94.5621 66.261 94.6248 66.3243C96.3181 67.5585 101.476 71.1978 103.954 71.894C103.954 71.894 108.547 73.4763 112.53 66.5617L94.7659 65.9446ZM117.265 50.707C117.265 50.707 102.182 58.8875 94.3739 64.2041C94.2956 64.2673 94.2485 64.3623 94.2799 64.4572C94.2799 64.4572 94.3583 64.5996 94.468 64.5996C97.2588 64.5996 107.826 64.6154 108.108 64.568C109.159 64.4889 110.194 64.2515 111.166 63.8559C111.166 63.8559 114.929 62.6534 116.873 58.3337C116.873 58.3337 118.613 54.821 117.265 50.707ZM92.9472 62.3844C93.0099 62.4319 93.104 62.4477 93.1824 62.4002C95.7223 61.1186 106.305 55.6913 110.68 51.3716C110.68 51.3716 113.455 49.1247 113.596 45.5012C113.909 40.4853 108.908 35.8334 108.908 35.8334C108.908 35.8334 99.6576 47.1468 92.8688 62.0996C92.8579 62.1499 92.8594 62.2022 92.873 62.2518C92.8867 62.3014 92.9121 62.347 92.9472 62.3844Z" fill="#D5D6D7"/>
</g>
<defs>
<clipPath id="clip0_20009_4598">
<rect width="199" height="44" fill="white" transform="translate(60 28)"/>
</clipPath>
</defs>
</svg>
