<svg width="320" height="100" viewBox="0 0 320 100" fill="none" xmlns="http://www.w3.org/2000/svg">
<rect width="320" height="100" rx="24" fill="#F3F4F5"/>
<path d="M199.531 53.3086H205.02V58.3534C204.012 58.733 202.035 59.1127 200.161 59.1127C194.089 59.1127 192.07 56.0676 192.07 49.8838C192.07 43.9822 193.992 40.5093 200.058 40.5093C203.439 40.5093 205.357 41.5572 206.946 43.5556L211.141 39.7486C208.58 36.1404 204.109 35.0469 199.912 35.0469C190.476 35.0432 185.514 40.1284 185.514 49.8345C185.514 59.4925 189.998 64.728 199.862 64.728C204.391 64.728 208.818 63.5889 211.229 61.9195V47.9318H199.531L199.531 53.3086ZM170.738 58.6853H184.707V64.2997H163.996V35.47H170.738L170.738 58.6853Z" fill="#D5D6D7"/>
<path d="M147.287 65.7672C156.099 57.0607 156.099 42.9437 147.286 34.2391C138.473 25.5329 124.185 25.5319 115.375 34.2382C106.562 42.9446 106.563 57.0618 115.375 65.7664C124.188 74.4732 138.476 74.4734 147.287 65.7672Z" fill="#D5D6D7"/>
<path d="M124.485 45.654C125 45.6516 125.502 45.4985 125.929 45.2142C126.355 44.9301 126.687 44.5274 126.882 44.057C127.077 43.5867 127.127 43.0696 127.025 42.5714C126.923 42.0731 126.674 41.6158 126.309 41.2573C125.945 40.8987 125.48 40.6548 124.976 40.5566C124.471 40.4583 123.948 40.51 123.473 40.7051C122.998 40.9003 122.592 41.23 122.306 41.653C122.02 42.0758 121.868 42.5727 121.868 43.081C121.869 43.4197 121.937 43.755 122.069 44.0676C122.201 44.3803 122.394 44.6642 122.637 44.9031C122.88 45.142 123.169 45.3313 123.486 45.4601C123.803 45.5891 124.142 45.6549 124.485 45.654ZM148.353 50.7089H136.877V49.0295H150.035C150.053 49.3548 150.062 49.6799 150.062 50.009C150.062 60.1215 141.72 68.3189 131.432 68.3189C121.144 68.3189 112.801 60.1266 112.801 50.009C112.801 39.8924 121.141 31.6992 131.43 31.6992C131.702 31.6992 131.972 31.7046 132.241 31.7156V33.3825C131.972 33.3706 131.703 33.3648 131.433 33.3648C122.082 33.3648 114.498 40.8168 114.498 50.0073C114.498 59.198 122.081 66.6515 131.433 66.6515C140.528 66.6515 147.958 59.6007 148.351 50.7556L148.353 50.7089ZM136.851 57.7055H132.24V40.5873H130.535V59.3964H132.243V59.3851H136.855L136.851 57.7055Z" fill="#F3F4F5"/>
</svg>
