<svg width="320" height="100" viewBox="0 0 320 100" fill="none" xmlns="http://www.w3.org/2000/svg">
<rect width="320" height="100" rx="24" fill="#F3F4F5"/>
<g clip-path="url(#clip0_20009_4603)">
<path d="M241.898 36.3802C239.668 24.1515 201.195 20.3353 155.963 27.8561C136.967 31.0163 119.815 35.6773 106.458 40.9211C108.51 40.964 110.031 41.4133 110.956 42.294C111.679 42.9852 112.044 43.9338 112.044 45.1156V46.3287H107.609V45.2576C107.609 44.3652 107.048 43.8121 106.056 43.8121C105.222 43.8121 104.708 44.1717 104.542 44.88C104.487 45.1601 104.493 45.448 104.56 45.7257C105.035 47.5784 111.621 48.729 112.337 52.1481C112.431 52.5881 112.559 53.5297 112.358 54.8769C111.947 57.6345 109.41 58.6986 106.18 58.6986C101.672 58.6986 99.8408 56.6594 99.8408 53.848L99.8441 52.5179H104.599L104.601 54.1748C104.601 55.1062 105.31 55.6203 106.276 55.6203C107.19 55.6203 107.725 55.2685 107.909 54.5493C107.995 54.2185 108.033 53.7309 107.877 53.3581C106.997 51.2503 100.847 50.2658 100.09 46.8576C99.9208 46.0915 99.907 45.4394 100.047 44.6148C100.12 44.2061 100.252 43.8092 100.441 43.4361C85.625 50.0536 76.9578 57.335 78.1029 63.6217C80.3353 75.8519 118.807 79.6642 164.038 72.1434C183.921 68.8382 201.796 63.8901 215.4 58.3452C215.204 58.3545 215.012 58.3748 214.808 58.3748C211.712 58.3748 208.948 57.2671 208.662 54.245C208.611 53.6951 208.602 53.4649 208.6 53.1513L208.602 46.2039C208.602 45.9043 208.639 45.3785 208.674 45.1071C209.041 42.1864 211.458 40.9819 214.81 40.9819C217.403 40.9819 220.583 41.6926 220.933 45.1094C220.979 45.5384 220.974 45.9964 220.973 46.1469V46.803H216.494V45.824C216.494 45.8029 216.488 45.437 216.439 45.2085C216.365 44.8598 216.054 44.0516 214.778 44.0516C213.518 44.0516 213.191 44.8613 213.109 45.2092C213.063 45.4004 213.041 45.675 213.041 45.9792V53.5297C213.036 53.7918 213.05 53.997 213.078 54.1475C213.1 54.2661 213.326 55.3067 214.793 55.3067C216.25 55.3067 216.475 54.2661 216.496 54.1475C216.534 53.9431 216.539 53.6997 216.537 53.5297V51.1902H214.775V48.6705H221.008V53.1529C221.006 53.4579 221.001 53.6834 220.947 54.245C220.872 55.0376 220.611 55.7085 220.201 56.2818C234.628 49.7392 243.028 42.5757 241.898 36.3802ZM124.613 58.0534L122.344 43.3284H122.262L119.935 58.0534H115.153L118.369 41.4242H126.172L129.369 58.0534H124.613ZM147.616 58.0534L147.511 43.6132H147.434L144.62 58.0534H140.132L137.332 43.6132H137.252L137.15 58.0534H132.702L133.088 41.4242H140.241L142.324 53.777H142.426L144.515 41.4242H151.665L152.049 58.0534H147.616ZM168.56 54.8309C168.082 58.0519 164.778 58.6151 162.442 58.6151C158.565 58.6151 156.167 57.0323 156.167 53.8113L156.169 52.4976H160.867L160.87 54.1343C160.87 55.0228 161.526 55.5665 162.539 55.5665C163.442 55.5665 163.971 55.2201 164.155 54.5087C164.24 54.1772 164.275 53.6935 164.125 53.3284C163.259 51.2604 157.157 50.2471 156.416 46.8919C156.246 46.1313 156.234 45.4854 156.373 44.6694C156.89 41.6279 159.946 40.996 162.406 40.996C164.607 40.996 166.209 41.4547 167.169 42.3721C167.885 43.057 168.248 43.997 168.248 45.1663V46.3661H163.855V45.3075C163.855 44.4011 163.266 43.8769 162.32 43.8769C161.48 43.8769 160.972 44.2334 160.805 44.9347C160.751 45.2118 160.758 45.4966 160.827 45.7709C161.297 47.615 167.825 48.7423 168.54 52.1294C168.632 52.5616 168.759 53.4891 168.56 54.8309ZM184.829 53.3198C184.836 53.6319 184.804 54.2552 184.786 54.4151C184.518 57.1548 182.466 58.5472 178.703 58.5472C174.926 58.5472 172.872 57.1548 172.606 54.4151C172.576 54.0518 172.561 53.6874 172.563 53.323V41.4203H177.057V53.6982C177.052 53.9728 177.066 54.1756 177.095 54.3168C177.151 54.5898 177.435 55.476 178.703 55.476C179.968 55.476 180.252 54.589 180.312 54.3199C180.337 54.1748 180.353 53.9619 180.353 53.6974V41.4203H184.829V53.3198ZM204.192 57.8841H197.939L193.741 44.7123H193.671L193.903 57.8841H189.545V41.4242H196.061L199.941 54.0773H200.031L199.802 41.4242H204.192V57.8841Z" fill="#D5D6D7"/>
</g>
<defs>
<clipPath id="clip0_20009_4603">
<rect width="164" height="52" fill="white" transform="translate(78 24)"/>
</clipPath>
</defs>
</svg>
