<svg width="320" height="100" viewBox="0 0 320 100" fill="none" xmlns="http://www.w3.org/2000/svg">
<rect width="320" height="100" rx="24" fill="#F3F4F5"/>
<g clip-path="url(#clip0_20009_4634)">
<path fill-rule="evenodd" clip-rule="evenodd" d="M193.068 46.7856C194.131 46.5817 201.496 46.7856 203.193 46.7856C204.836 46.6654 206.487 46.7276 208.116 46.9708C215.294 48.8238 215.239 59.9413 207.463 61.331C206.307 61.5348 199.072 61.331 197.32 61.331C195.676 61.4402 194.026 61.3719 192.397 61.1272C191.416 60.8401 190.504 60.3554 189.72 59.7034C188.935 59.0513 188.293 58.2458 187.835 57.3369C187.377 56.428 187.112 55.4351 187.056 54.42C187.001 53.4049 187.156 52.3894 187.512 51.4364C187.922 50.2223 188.662 49.1442 189.648 48.3205C190.635 47.4967 191.832 46.9592 193.106 46.767L193.068 46.7856ZM217.886 55.4202C218.138 53.4642 217.897 51.4766 217.184 49.6362C216.472 47.7958 215.31 46.1604 213.803 44.877C212.374 43.6733 210.672 42.8338 208.843 42.4312C206.481 42.1335 204.097 42.0529 201.72 42.1903H194.262C192.188 42.1424 190.141 42.6685 188.351 43.7097C186.712 44.6974 185.331 46.0558 184.32 47.6742C183.309 49.2925 182.697 51.1252 182.533 53.0231C182.37 54.921 182.659 56.8305 183.379 58.5961C184.098 60.3617 185.227 61.9337 186.673 63.1839C190.402 66.3524 194.019 65.8892 198.737 65.8892H206.195C209.113 65.929 211.938 64.8727 214.106 62.9317C216.273 60.9907 217.623 58.308 217.886 55.4202ZM147.666 45.3959C148.139 46.4916 148.767 47.5148 149.53 48.4347L155.404 56.9952C156.485 58.6813 157.977 61.1087 159.245 62.7207C159.939 63.7605 160.889 64.6062 162.005 65.1771C163.122 65.748 164.367 66.0251 165.622 65.9818C166.823 65.8792 167.982 65.4884 168.999 64.8429C170.015 64.1975 170.859 63.3167 171.458 62.276C172.726 60.4231 174.012 58.5701 175.355 56.569L182.217 46.4706C182.518 46.0822 182.695 45.6121 182.722 45.1221C182.75 44.6321 182.628 44.1453 182.371 43.7259C182.115 43.3065 181.736 42.9742 181.286 42.7729C180.836 42.5715 180.334 42.5105 179.848 42.5979C179.297 42.7957 178.794 43.1055 178.37 43.5074C177.946 43.9094 177.612 44.3948 177.387 44.9326L173.49 50.6767C172.204 52.5296 170.898 54.5122 169.593 56.3837C168.922 57.3472 168.325 58.2366 167.729 59.2372C167.132 60.2378 166.312 61.4607 164.838 61.0901C163.782 60.5767 162.933 59.7204 162.433 58.6628L160.569 55.8093C159.263 53.9564 158.014 52.1034 156.653 50.1023C155.292 48.1011 154.117 46.3964 152.756 44.3953C152.539 43.8029 152.13 43.2991 151.593 42.9635C151.056 42.6279 150.422 42.4798 149.791 42.5424C149.458 42.58 149.137 42.6853 148.846 42.8518C148.556 43.0182 148.304 43.2423 148.104 43.5099C147.905 43.7776 147.763 44.0831 147.687 44.4076C147.612 44.732 147.605 45.0684 147.666 45.3959ZM102.039 45.3403C102.492 46.4461 103.122 47.4722 103.903 48.3791L111.716 59.7931C113.581 62.6836 115.445 66.1301 119.976 65.9818C124.078 65.8336 125.775 62.4242 127.864 59.3484L133.737 50.7879C134.352 49.8614 135.024 48.9349 135.695 47.9344C136.578 47.0512 137.108 45.879 137.186 44.6362C137.141 44.3139 137.031 44.0041 136.863 43.7249C136.695 43.4458 136.472 43.203 136.208 43.0112C135.943 42.8193 135.643 42.6822 135.324 42.6081C135.005 42.5339 134.675 42.5241 134.352 42.5794C133.793 42.7556 133.281 43.0532 132.852 43.4506C132.423 43.848 132.088 44.3352 131.872 44.877C130.511 46.8597 129.299 48.6014 127.957 50.6767C126.614 52.752 125.384 54.3825 124.041 56.2355C123.351 57.2175 122.773 58.0884 122.176 59.089C121.956 59.6607 121.568 60.1536 121.063 60.5037C120.558 60.8539 119.958 61.0453 119.342 61.0531C118.244 60.5807 117.365 59.7139 116.881 58.6257C113.655 54.049 110.299 49.0276 107.111 44.3397C106.889 43.7542 106.482 43.2565 105.95 42.922C105.419 42.5876 104.792 42.4348 104.164 42.4868C103.832 42.5244 103.51 42.6297 103.22 42.7962C102.929 42.9627 102.677 43.1867 102.477 43.4543C102.278 43.722 102.136 44.0275 102.061 44.352C101.985 44.6764 101.978 45.0128 102.039 45.3403ZM141.941 42.5979C139.555 43.0982 139.946 45.1179 139.946 47.6379V61.7942C139.775 62.8572 139.924 63.9469 140.375 64.9257C140.633 65.3013 140.992 65.5974 141.411 65.7802C141.83 65.9629 142.292 66.025 142.745 65.9593C143.198 65.8937 143.623 65.7029 143.972 65.4088C144.321 65.1146 144.58 64.7289 144.719 64.2957C144.943 63.5545 144.831 55.0311 144.831 53.7896V46.6929C144.998 45.6377 144.856 44.5569 144.421 43.58C144.161 43.1894 143.79 42.8841 143.355 42.7027C142.92 42.5214 142.441 42.472 141.979 42.5609L141.941 42.5979ZM142.072 34.0004C141.723 34.2282 141.425 34.5246 141.195 34.8712L139.331 36.613C138.212 37.7062 139.144 38.2065 140.58 39.5591L141.456 40.43C142.594 41.5603 143.023 40.7265 144.514 39.2441C146.603 37.2615 146.528 37.7062 143.302 34.5007C143.185 34.2906 142.999 34.1266 142.776 34.0357C142.552 33.9447 142.304 33.9323 142.072 34.0004Z" fill="#D5D6D7"/>
</g>
<defs>
<clipPath id="clip0_20009_4634">
<rect width="116" height="32" fill="white" transform="translate(102 34)"/>
</clipPath>
</defs>
</svg>
