<svg width="320" height="100" viewBox="0 0 320 100" fill="none" xmlns="http://www.w3.org/2000/svg">
<rect width="320" height="100" rx="24" fill="#F3F4F5"/>
<g clip-path="url(#clip0_20009_4622)">
<path d="M204.932 41.4868C202.418 41.4868 199.897 41.804 198.307 43.3706C196.717 44.9372 196.099 47.2871 196.099 50.1775C196.099 53.0678 196.662 55.3746 198.229 56.9412C199.795 58.5078 202.403 58.8994 204.917 58.8994C207.43 58.8994 209.952 58.5626 211.542 56.996C213.131 55.4294 213.762 53.0796 213.762 50.1775C213.762 47.2753 213.202 44.992 211.612 43.4294C210.022 41.8667 207.45 41.4868 204.932 41.4868ZM208.75 54.3407C207.861 55.3511 206.256 55.5156 204.932 55.5156C203.609 55.5156 202.007 55.3394 201.118 54.3407C200.23 53.342 200.186 51.9359 200.186 50.1814C200.186 48.4268 200.245 47.0678 201.13 46.0534C202.015 45.039 203.44 44.8785 204.944 44.8785C206.448 44.8785 207.873 45.0547 208.758 46.0534C209.643 47.0521 209.701 48.4229 209.701 50.1814C209.701 51.9399 209.635 53.3263 208.75 54.3407ZM170.075 41.7962H166.512C166.476 41.7957 166.441 41.8023 166.408 41.8156C166.374 41.829 166.344 41.8488 166.319 41.874C166.293 41.8991 166.273 41.9291 166.259 41.9621C166.245 41.9952 166.238 42.0306 166.238 42.0664V58.3159C166.238 58.3517 166.245 58.3872 166.259 58.4202C166.273 58.4533 166.293 58.4832 166.319 58.5084C166.344 58.5335 166.374 58.5533 166.408 58.5667C166.441 58.58 166.476 58.5866 166.512 58.5861H170.075C170.148 58.5861 170.217 58.5578 170.268 58.5072C170.319 58.4566 170.349 58.3879 170.35 58.3159V42.0664C170.349 41.9944 170.319 41.9257 170.268 41.8751C170.217 41.8245 170.148 41.7962 170.075 41.7962ZM155.106 50.0521L161.422 42.2192C161.453 42.1811 161.473 42.1348 161.479 42.0858C161.485 42.0367 161.477 41.987 161.456 41.9425C161.434 41.898 161.4 41.8606 161.358 41.8347C161.316 41.8087 161.268 41.7954 161.218 41.7962H156.672C156.619 41.7963 156.566 41.8088 156.518 41.8325C156.469 41.8563 156.427 41.8907 156.394 41.9333L152.213 47.479L148.136 41.9372C148.104 41.8939 148.062 41.8587 148.014 41.8343C147.966 41.8098 147.912 41.7968 147.858 41.7962H143.285C143.236 41.7954 143.187 41.8087 143.145 41.8347C143.103 41.8606 143.069 41.898 143.048 41.9425C143.026 41.987 143.018 42.0367 143.024 42.0858C143.03 42.1348 143.05 42.1811 143.081 42.2192L149.483 50.197L143.073 58.1671C143.043 58.2052 143.024 58.2511 143.019 58.2995C143.014 58.3479 143.022 58.3968 143.044 58.4406C143.065 58.4844 143.098 58.5213 143.139 58.547C143.181 58.5728 143.228 58.5863 143.277 58.5861H147.851C147.906 58.5857 147.96 58.5723 148.009 58.5472C148.058 58.522 148.1 58.4857 148.132 58.4412L152.416 52.919L156.445 58.4451C156.478 58.4887 156.521 58.5241 156.57 58.5485C156.619 58.573 156.673 58.5858 156.727 58.5861H161.242C161.291 58.5863 161.338 58.5728 161.38 58.547C161.421 58.5213 161.454 58.4844 161.475 58.4406C161.497 58.3968 161.505 58.3479 161.5 58.2995C161.495 58.2511 161.476 58.2052 161.446 58.1671L155.106 50.0521ZM241.821 43.0299C240.372 41.6826 238.043 41.5181 236.159 41.5181C233.724 41.5181 232.173 42.0351 231.233 42.5207H230.579C229.659 42.0116 228.038 41.5181 225.489 41.5181C223.602 41.5181 221.292 41.6552 219.866 42.8536C218.692 43.8406 218.414 45.1604 218.414 47.8628V58.3081C218.414 58.3441 218.422 58.3796 218.436 58.4127C218.45 58.4457 218.471 58.4757 218.497 58.5008C218.522 58.5259 218.553 58.5456 218.586 58.5589C218.62 58.5722 218.656 58.5788 218.692 58.5783H222.251C222.287 58.5788 222.323 58.5722 222.356 58.5589C222.39 58.5456 222.42 58.5259 222.446 58.5008C222.472 58.4757 222.492 58.4457 222.507 58.4127C222.521 58.3796 222.528 58.3441 222.529 58.3081V58.2728V49.7114C222.529 48.1448 222.47 46.5469 222.803 45.9437C223.065 45.4738 223.473 44.9529 225.407 44.9529C227.713 44.9529 228.257 45.1135 228.622 46.1278C228.717 46.4535 228.767 46.791 228.77 47.1304V58.3081C228.77 58.3439 228.778 58.3793 228.791 58.4124C228.805 58.4454 228.825 58.4754 228.851 58.5005C228.876 58.5257 228.907 58.5455 228.94 58.5589C228.973 58.5722 229.009 58.5788 229.044 58.5783H232.604C232.64 58.5788 232.676 58.5722 232.709 58.5589C232.742 58.5456 232.773 58.5259 232.799 58.5008C232.825 58.4757 232.845 58.4457 232.859 58.4127C232.874 58.3796 232.881 58.3441 232.882 58.3081V47.1383C232.885 46.7988 232.935 46.4614 233.031 46.1357C233.395 45.1135 233.935 44.9607 236.241 44.9607C238.176 44.9607 238.591 45.4816 238.845 45.9516C239.182 46.5547 239.119 48.1683 239.119 49.7192V58.3355C239.12 58.3715 239.127 58.407 239.142 58.4401C239.156 58.4732 239.177 58.5031 239.202 58.5282C239.228 58.5533 239.259 58.573 239.292 58.5863C239.326 58.5996 239.361 58.6062 239.397 58.6057H242.957C243.029 58.6057 243.098 58.5774 243.149 58.5268C243.2 58.4762 243.23 58.4075 243.231 58.3355V48.5443C243.231 45.6931 243.141 44.2557 241.821 43.0299ZM190.719 44.0247C189.074 41.757 186.09 41.0717 183.013 41.2361C181.017 41.3142 179.04 41.6647 177.139 42.2779C176.795 42.4072 176.838 42.7048 176.834 42.885C176.834 43.4842 176.775 45.0351 176.779 45.6657C176.779 45.9437 177.12 46.0573 177.406 45.9712C179.002 45.3914 180.66 44.9972 182.347 44.7962C184.176 44.6474 186.654 44.7962 187.343 45.8341C187.668 46.3276 187.684 47.0834 187.735 47.855C186.238 47.6928 184.732 47.6405 183.228 47.6983C181.916 47.7571 179.434 47.8706 177.942 48.6539C176.744 49.2923 176.039 49.872 175.663 50.9529C175.374 51.8442 175.277 52.7864 175.377 53.7179C175.596 55.6762 176.27 56.6279 177.182 57.3015C178.619 58.3668 180.436 58.9269 184.187 58.8446C189.18 58.7349 190.491 57.1214 191.153 55.9738C192.281 54.0156 192.085 50.9412 192.05 49.0495C192.038 48.2623 191.921 45.6853 190.719 44.0247ZM187.465 54.2741C186.995 55.265 185.315 55.4177 184.332 55.449C182.492 55.5313 181.137 55.449 180.26 55.026C179.953 54.863 179.695 54.6232 179.509 54.3301C179.323 54.0369 179.216 53.7005 179.199 53.3537C179.168 52.7153 179.179 52.3903 179.465 52.0104C180.115 51.1683 181.814 50.9882 183.541 50.9216C184.973 50.9045 186.404 50.9869 187.825 51.1683C187.813 52.4373 187.731 53.714 187.465 54.2741ZM252.722 41.7962H249.163C249.127 41.7957 249.091 41.8023 249.058 41.8156C249.024 41.8289 248.994 41.8486 248.968 41.8737C248.942 41.8988 248.921 41.9287 248.907 41.9618C248.893 41.9949 248.885 42.0304 248.885 42.0664V58.3159C248.885 58.3519 248.893 58.3874 248.907 58.4205C248.921 58.4536 248.942 58.4835 248.968 58.5086C248.994 58.5337 249.024 58.5535 249.058 58.5668C249.091 58.5801 249.127 58.5866 249.163 58.5861H252.722C252.758 58.5866 252.794 58.5801 252.827 58.5668C252.861 58.5535 252.891 58.5337 252.917 58.5086C252.943 58.4835 252.964 58.4536 252.978 58.4205C252.992 58.3874 253 58.3519 253 58.3159V42.0664C253 42.0304 252.992 41.9949 252.978 41.9618C252.964 41.9287 252.943 41.8988 252.917 41.8737C252.891 41.8486 252.861 41.8289 252.827 41.8156C252.794 41.8023 252.758 41.7957 252.722 41.7962Z" fill="#D5D6D7"/>
</g>
<g clip-path="url(#clip1_20009_4622)">
<path d="M118 20H76C71.0275 20 67 24.0275 67 29V71C67 75.9725 71.0275 80 76 80H118C122.973 80 127 75.9725 127 71V29C127 24.0275 122.973 20 118 20Z" fill="#D5D6D7"/>
<path d="M105.647 47.457V60.9495C105.647 61.2795 105.377 61.5495 105.047 61.5495H100.247C99.9174 61.5495 99.6474 61.2795 99.6474 60.9495V47.457C99.6474 45.7995 98.3049 44.457 96.6474 44.457H84.9699C84.8049 44.457 84.6699 44.592 84.6699 44.757V60.9495C84.6699 61.2795 84.3999 61.5495 84.0699 61.5495H79.2699C78.9399 61.5495 78.6699 61.2795 78.6699 60.9495V39.057C78.6699 38.727 78.9399 38.457 79.2699 38.457H96.6474C101.62 38.457 105.647 42.4845 105.647 47.457ZM94.5624 47.457H89.7624C89.4324 47.457 89.1624 47.727 89.1624 48.057V60.9495C89.1624 61.2795 89.4324 61.5495 89.7624 61.5495H94.5624C94.8924 61.5495 95.1624 61.2795 95.1624 60.9495V48.057C95.1624 47.727 94.8924 47.457 94.5624 47.457ZM114.73 38.457H109.93C109.6 38.457 109.33 38.727 109.33 39.057V60.9495C109.33 61.2795 109.6 61.5495 109.93 61.5495H114.73C115.06 61.5495 115.33 61.2795 115.33 60.9495V39.057C115.33 38.727 115.06 38.457 114.73 38.457Z" fill="#F3F4F5"/>
</g>
<defs>
<clipPath id="clip0_20009_4622">
<rect width="110" height="18" fill="white" transform="translate(143 41)"/>
</clipPath>
<clipPath id="clip1_20009_4622">
<rect width="60" height="60" fill="white" transform="translate(67 20)"/>
</clipPath>
</defs>
</svg>
